<svg width="150" height="151" viewBox="0 0 150 151" fill="none" xmlns="http://www.w3.org/2000/svg">
<circle cx="75" cy="75.5" r="75" fill="#E5DFF6"/>
<path d="M34.9586 50.5L34.4664 48.627H31.2193L30.7135 50.5H27.7467L31.0074 40.4648H34.61L37.9117 50.5H34.9586ZM33.9059 46.4121L33.4752 44.7715C33.4296 44.5938 33.3635 44.3408 33.277 44.0127C33.1904 43.68 33.1038 43.3382 33.0172 42.9873C32.9352 42.6318 32.8714 42.3402 32.8258 42.1123C32.7848 42.3402 32.7255 42.6227 32.648 42.96C32.5751 43.2926 32.4977 43.623 32.4156 43.9512C32.3382 44.2793 32.2698 44.5527 32.2105 44.7715L31.7799 46.4121H33.9059ZM47.7957 40.5059V46.5215C47.7957 47.36 47.6362 48.0892 47.3172 48.709C46.9982 49.3242 46.5197 49.8005 45.8816 50.1377C45.2436 50.4704 44.4438 50.6367 43.4822 50.6367C42.1059 50.6367 41.0555 50.2835 40.3309 49.5771C39.6063 48.8708 39.2439 47.8727 39.2439 46.583V40.5059H41.9578V46.3711C41.9578 47.0775 42.09 47.5902 42.3543 47.9092C42.6186 48.2282 43.0083 48.3877 43.5232 48.3877C43.8924 48.3877 44.1932 48.3193 44.4256 48.1826C44.658 48.0413 44.8266 47.8203 44.9314 47.5195C45.0408 47.2188 45.0955 46.8314 45.0955 46.3574V40.5059H47.7957ZM54.6035 50.5H51.9033V42.7139H49.4629V40.5059H57.0371V42.7139H54.6035V50.5ZM67.3313 50.5H64.6174V46.4258H61.4797V50.5H58.7658V40.5059H61.4797V44.2109H64.6174V40.5059H67.3313V50.5ZM79.1498 45.4893C79.1498 46.2594 79.0564 46.9613 78.8695 47.5947C78.6872 48.2236 78.4001 48.766 78.0082 49.2217C77.6163 49.6774 77.1127 50.0283 76.4975 50.2744C75.8822 50.516 75.1462 50.6367 74.2895 50.6367C73.4509 50.6367 72.724 50.516 72.1088 50.2744C71.4981 50.0283 70.9945 49.6797 70.5981 49.2285C70.2016 48.7728 69.9076 48.2282 69.7162 47.5947C69.5248 46.9613 69.4291 46.2549 69.4291 45.4756C69.4291 44.4365 69.6 43.5342 69.9418 42.7686C70.2882 41.9984 70.8214 41.4036 71.5414 40.9844C72.2615 40.5605 73.182 40.3486 74.3031 40.3486C75.4425 40.3486 76.3676 40.5605 77.0785 40.9844C77.794 41.4082 78.3181 42.0052 78.6508 42.7754C78.9835 43.5456 79.1498 44.4502 79.1498 45.4893ZM72.2729 45.4893C72.2729 46.0908 72.3412 46.6081 72.4779 47.041C72.6147 47.474 72.8311 47.8066 73.1273 48.0391C73.4236 48.2715 73.8109 48.3877 74.2895 48.3877C74.7862 48.3877 75.1804 48.2715 75.4721 48.0391C75.7683 47.8066 75.9802 47.474 76.1078 47.041C76.24 46.6081 76.3061 46.0908 76.3061 45.4893C76.3061 44.5869 76.1557 43.8737 75.8549 43.3496C75.5541 42.8255 75.0369 42.5635 74.3031 42.5635C73.8155 42.5635 73.4213 42.682 73.1205 42.9189C72.8243 43.1559 72.6078 43.4932 72.4711 43.9307C72.3389 44.3682 72.2729 44.8877 72.2729 45.4893ZM84.5289 40.5059C85.4358 40.5059 86.19 40.6175 86.7916 40.8408C87.3932 41.0596 87.8443 41.3877 88.1451 41.8252C88.4505 42.2627 88.6031 42.8073 88.6031 43.459C88.6031 43.8646 88.5348 44.2337 88.398 44.5664C88.2613 44.8991 88.0654 45.1976 87.8102 45.4619C87.5595 45.7217 87.2587 45.9495 86.9078 46.1455L89.8199 50.5H86.7574L84.6383 46.8633H83.9547V50.5H81.2545V40.5059H84.5289ZM84.4879 42.5498H83.9547V44.833H84.4605C84.8753 44.833 85.2148 44.7419 85.4791 44.5596C85.7434 44.3773 85.8756 44.0514 85.8756 43.582C85.8756 43.2585 85.7662 43.0055 85.5475 42.8232C85.3287 42.641 84.9755 42.5498 84.4879 42.5498ZM91.0291 50.5V40.5059H93.743V50.5H91.0291ZM103.333 50.5H95.5469V48.832L99.874 42.6865H95.6494V40.5059H103.224V42.167L98.8965 48.3193H103.333V50.5ZM111.002 50.5H105.069V40.5059H111.002V42.6729H107.769V44.2451H110.763V46.4121H107.769V48.2988H111.002V50.5ZM121.536 45.291C121.536 46.4531 121.319 47.4193 120.886 48.1895C120.453 48.9596 119.843 49.5384 119.054 49.9258C118.27 50.3086 117.347 50.5 116.286 50.5H113.052V40.5059H116.511C117.587 40.5059 118.498 40.6904 119.246 41.0596C119.993 41.4287 120.56 41.9688 120.948 42.6797C121.34 43.3906 121.536 44.2611 121.536 45.291ZM118.733 45.3867C118.733 44.7806 118.651 44.2793 118.487 43.8828C118.327 43.4818 118.086 43.1833 117.762 42.9873C117.439 42.7868 117.031 42.6865 116.538 42.6865H115.752V48.2852H116.354C117.174 48.2852 117.776 48.0482 118.159 47.5742C118.541 47.0957 118.733 46.3665 118.733 45.3867Z" fill="#4217BC"/>
<path d="M42.7303 104.506C43.9972 104.506 44.9451 104.782 45.574 105.333C46.2075 105.884 46.5242 106.668 46.5242 107.685C46.5242 108.14 46.4581 108.578 46.326 108.997C46.1984 109.416 45.9865 109.79 45.6902 110.118C45.3986 110.446 45.0089 110.706 44.5213 110.897C44.0382 111.089 43.4412 111.185 42.7303 111.185H41.9715V114.5H39.2713V104.506H42.7303ZM42.6688 106.687H41.9715V108.983H42.5047C42.7371 108.983 42.9536 108.945 43.1541 108.867C43.3546 108.785 43.5141 108.655 43.6326 108.478C43.7557 108.295 43.8172 108.054 43.8172 107.753C43.8172 107.438 43.7238 107.183 43.5369 106.987C43.3501 106.787 43.0607 106.687 42.6688 106.687ZM51.6914 104.506C52.5983 104.506 53.3525 104.618 53.9541 104.841C54.5557 105.06 55.0068 105.388 55.3076 105.825C55.613 106.263 55.7656 106.807 55.7656 107.459C55.7656 107.865 55.6973 108.234 55.5605 108.566C55.4238 108.899 55.2279 109.198 54.9727 109.462C54.722 109.722 54.4212 109.95 54.0703 110.146L56.9824 114.5H53.9199L51.8008 110.863H51.1172V114.5H48.417V104.506H51.6914ZM51.6504 106.55H51.1172V108.833H51.623C52.0378 108.833 52.3773 108.742 52.6416 108.56C52.9059 108.377 53.0381 108.051 53.0381 107.582C53.0381 107.258 52.9287 107.006 52.71 106.823C52.4912 106.641 52.138 106.55 51.6504 106.55ZM67.5432 109.489C67.5432 110.259 67.4497 110.961 67.2629 111.595C67.0806 112.224 66.7935 112.766 66.4016 113.222C66.0096 113.677 65.5061 114.028 64.8908 114.274C64.2756 114.516 63.5396 114.637 62.6828 114.637C61.8443 114.637 61.1174 114.516 60.5022 114.274C59.8915 114.028 59.3879 113.68 58.9914 113.229C58.5949 112.773 58.301 112.228 58.1096 111.595C57.9182 110.961 57.8225 110.255 57.8225 109.476C57.8225 108.437 57.9934 107.534 58.3352 106.769C58.6815 105.998 59.2147 105.404 59.9348 104.984C60.6548 104.561 61.5754 104.349 62.6965 104.349C63.8358 104.349 64.7609 104.561 65.4719 104.984C66.1874 105.408 66.7115 106.005 67.0441 106.775C67.3768 107.546 67.5432 108.45 67.5432 109.489ZM60.6662 109.489C60.6662 110.091 60.7346 110.608 60.8713 111.041C61.008 111.474 61.2245 111.807 61.5207 112.039C61.8169 112.271 62.2043 112.388 62.6828 112.388C63.1796 112.388 63.5738 112.271 63.8654 112.039C64.1617 111.807 64.3736 111.474 64.5012 111.041C64.6333 110.608 64.6994 110.091 64.6994 109.489C64.6994 108.587 64.549 107.874 64.2482 107.35C63.9475 106.826 63.4302 106.563 62.6965 106.563C62.2089 106.563 61.8147 106.682 61.5139 106.919C61.2176 107.156 61.0012 107.493 60.8645 107.931C60.7323 108.368 60.6662 108.888 60.6662 109.489ZM78.2816 104.506L75.0072 114.5H71.8285L68.5678 104.506H71.6029L72.9633 109.571C73.0134 109.763 73.0704 110.009 73.1342 110.31C73.2025 110.606 73.2641 110.902 73.3187 111.198C73.378 111.494 73.4145 111.736 73.4281 111.923C73.4464 111.736 73.4805 111.497 73.5307 111.205C73.5808 110.913 73.6355 110.622 73.6947 110.33C73.7585 110.034 73.8178 109.79 73.8725 109.599L75.2602 104.506H78.2816ZM79.6686 114.5V104.506H82.3824V114.5H79.6686ZM93.3328 109.291C93.3328 110.453 93.1163 111.419 92.6834 112.189C92.2505 112.96 91.6398 113.538 90.8514 113.926C90.0675 114.309 89.1447 114.5 88.0828 114.5H84.8494V104.506H88.3084C89.3839 104.506 90.2954 104.69 91.0428 105.06C91.7902 105.429 92.3575 105.969 92.7449 106.68C93.1368 107.391 93.3328 108.261 93.3328 109.291ZM90.5301 109.387C90.5301 108.781 90.448 108.279 90.284 107.883C90.1245 107.482 89.8829 107.183 89.5594 106.987C89.2358 106.787 88.8279 106.687 88.3357 106.687H87.5496V112.285H88.1512C88.9715 112.285 89.573 112.048 89.9559 111.574C90.3387 111.096 90.5301 110.367 90.5301 109.387ZM101.364 114.5H95.4307V104.506H101.364V106.673H98.1309V108.245H101.125V110.412H98.1309V112.299H101.364V114.5ZM106.689 104.506C107.596 104.506 108.35 104.618 108.951 104.841C109.553 105.06 110.004 105.388 110.305 105.825C110.61 106.263 110.763 106.807 110.763 107.459C110.763 107.865 110.695 108.234 110.558 108.566C110.421 108.899 110.225 109.198 109.97 109.462C109.719 109.722 109.418 109.95 109.068 110.146L111.98 114.5H108.917L106.798 110.863H106.114V114.5H103.414V104.506H106.689ZM106.648 106.55H106.114V108.833H106.62C107.035 108.833 107.375 108.742 107.639 108.56C107.903 108.377 108.035 108.051 108.035 107.582C108.035 107.258 107.926 107.006 107.707 106.823C107.488 106.641 107.135 106.55 106.648 106.55Z" fill="#4217BC"/>
<path fill-rule="evenodd" clip-rule="evenodd" d="M74.0416 89.2918C39.7673 89.2918 12 82.8928 12 74.9989C12 67.1063 39.7679 60.7061 74.0416 60.7061C108.315 60.7061 136.084 67.1057 136.084 74.9989C136.084 82.8921 108.316 89.2918 74.0416 89.2918Z" fill="#4217BC"/>
<path fill-rule="evenodd" clip-rule="evenodd" d="M110.912 77.8431C110.769 78.4831 110.662 78.8028 110.52 79.5145C110.45 79.7632 110.413 80.1545 110.556 80.4032C110.733 80.6884 111.053 80.831 111.515 80.831C112.192 80.8662 112.583 80.6533 112.831 80.3687C113.151 79.9774 113.258 79.1948 113.4 78.7338H119.017C118.519 80.6539 117.773 81.6846 116.316 82.5733C115.249 83.2485 113.72 83.6757 110.662 83.6757C108.031 83.6757 106.503 82.9991 105.685 82.1456C104.511 80.8655 104.511 79.1596 105.436 75.9237C106.111 73.5771 106.965 72.0484 108.493 71.0528C109.88 70.1641 111.551 69.8086 114.288 69.8086C116.279 69.8086 118.093 70.1641 119.159 71.0887C120.759 72.4748 120.333 74.0752 119.373 77.5599H110.981C110.946 77.6654 110.946 77.7721 110.912 77.8431ZM113.685 72.6174C114.574 72.6174 114.822 73.1149 114.715 73.6839C114.68 73.9684 114.503 74.5375 114.36 75.0708H111.658C111.801 74.5375 112.013 73.9685 112.12 73.613C112.369 73.0439 112.831 72.6174 113.685 72.6174ZM39.4827 76.386C39.3049 77.2031 39.163 77.6309 38.9494 78.5548C38.8784 78.8744 38.8426 79.3732 39.0562 79.6936C39.3049 80.0132 39.6962 80.191 40.2646 80.2261C41.1534 80.2626 41.6515 79.9423 41.936 79.5861C42.3983 79.0887 42.5409 78.0938 42.6828 77.4889H49.936C49.2602 79.9774 48.3005 81.2933 46.452 82.4308C45.0658 83.2843 43.0748 83.9244 39.1636 83.8534C35.6796 83.7824 33.3682 83.0708 32.124 81.3649C31.1285 79.9774 31.342 78.0228 31.8753 75.8527C32.0179 75.2492 32.7289 73.0087 32.9418 72.2268C34.3286 67.0714 39.1636 66.0049 43.8216 66.0049C46.4169 66.0049 48.7276 66.4665 50.1144 67.6763C52.1413 69.4538 51.6074 71.5158 50.399 75.9953H39.5901C39.5543 76.1372 39.5185 76.2798 39.4827 76.386ZM43.0741 69.6308C44.1764 69.6308 44.5313 70.2709 44.3893 71.017C44.3535 71.3367 44.1758 72.0484 43.9622 72.6884H40.4782C40.6911 71.9767 40.8688 71.3367 41.0466 70.9461C41.3676 70.1634 41.936 69.6308 43.0741 69.6308ZM100.103 65.9326H106.147L101.454 83.3188H95.3734L100.103 65.9326ZM96.2986 70.1992L92.7423 83.3188H86.663L90.2193 70.1992H96.2986ZM89.4002 65.9326L88.6541 68.7056H87.5518C86.7691 68.7056 86.3433 68.9543 86.1656 69.5234C86.023 70.0208 85.9878 70.1992 85.9878 70.1992H88.2628L87.4092 73.2568H85.1342L82.4322 83.3182H76.3529L79.0901 73.2568H77.17L77.9872 70.1992H79.9072C79.9072 70.1992 80.1208 69.5234 80.2986 68.8482C80.7263 67.2127 81.7922 65.8975 84.9207 65.8975H89.4002V65.9326Z" fill="white"/>
<path fill-rule="evenodd" clip-rule="evenodd" d="M32.301 69.3818C34.292 69.3818 35.1098 69.9509 34.7543 71.3729H32.5497C32.6206 71.1242 32.6206 70.9458 32.5497 70.839C32.4787 70.7322 32.301 70.6612 32.0522 70.6612C31.7677 70.6612 31.448 70.768 31.3764 71.0884C31.2696 71.5148 31.4474 71.6932 32.4787 72.1197C33.652 72.582 34.3988 73.1146 34.0433 74.4304C33.6878 75.8173 32.4787 76.3147 30.737 76.3147C29.8834 76.3147 28.9947 76.1721 28.5682 75.8173C28.106 75.426 27.9634 74.9637 28.2127 74.1101H30.4525C30.4525 74.1101 30.4167 74.2169 30.4167 74.2885C30.2383 74.8576 30.5586 75.0346 30.9851 75.0346C31.4825 75.0346 31.6251 74.7501 31.6961 74.5014C31.7671 74.0749 31.5535 73.8614 30.0963 73.1862C29.1008 72.7239 28.8521 72.0487 29.1366 71.0532C29.457 69.8441 30.7722 69.3818 32.301 69.3818Z" fill="#4217BC"/>
<path fill-rule="evenodd" clip-rule="evenodd" d="M17.9373 68.8836H20.3907L18.5774 75.5677H16.124L17.9373 68.8836ZM21.8836 68.8836H24.977C25.9373 68.8836 26.6835 68.9545 27.1464 69.4168C27.4661 69.7371 27.6081 70.1285 27.431 70.7685C27.1823 71.7282 26.5774 72.0485 25.7954 72.2263V72.2621C26.4713 72.4399 26.7909 72.8663 26.6132 73.5422C26.5071 74.1106 26.4003 74.3958 26.3645 74.7513C26.2935 75.0709 26.3287 75.3203 26.4713 75.569H23.876C23.805 75.1412 23.9828 74.4661 24.1957 73.6489C24.3376 73.115 24.1247 72.9731 23.805 72.9731H23.236L22.4898 75.569H20.0352L21.8836 68.8836ZM23.555 71.7275L23.9463 70.2697H24.5505C24.835 70.2697 25.1196 70.5184 24.977 70.9456C24.8702 71.443 24.5863 71.7275 23.9105 71.7275H23.555ZM31.7321 68.8126C33.6873 68.8126 34.5409 69.381 34.1854 70.8036H31.9808C32.0518 70.5549 32.0518 70.3765 31.9808 70.2704C31.9098 70.1285 31.6963 70.0926 31.4834 70.0568C31.1988 70.0568 30.8792 70.1636 30.8075 70.4833C30.7008 70.9456 30.8785 71.0882 31.9098 71.5146C33.0831 72.0127 33.8299 72.546 33.4738 73.8612C33.0831 75.2122 31.9098 75.711 30.1675 75.711C29.3139 75.711 28.4258 75.6035 27.9987 75.2122C27.5364 74.8574 27.3945 74.3951 27.6432 73.5057L29.883 73.5415C29.883 73.5057 29.8472 73.6125 29.8472 73.6834C29.6694 74.2883 29.9539 74.4654 30.4162 74.4296C30.9137 74.4296 31.0562 74.1809 31.0921 73.9321C31.1988 73.4699 30.9501 73.2921 29.5275 72.5811C28.5319 72.1188 28.2832 71.4437 28.5319 70.4833C28.8881 69.2391 30.2033 68.8126 31.7321 68.8126ZM51.8204 76.8113L66.291 70.6259L65.4022 74.679L76.4233 70.5543L61.633 79.0524L62.4866 74.608L51.8204 76.8113ZM97.401 65.9321L96.5832 69.1674H90.5026L91.3927 65.9321H97.401Z" fill="white"/>
</svg>
