<svg width="150" height="151" viewBox="0 0 150 151" fill="none" xmlns="http://www.w3.org/2000/svg">
<circle cx="75" cy="75.5" r="75" fill="#DEE3FD"/>
<g clip-path="url(#clip0_7179_77644)">
<path d="M115.234 34.0938H105.924V31.3594C105.924 28.1285 103.296 25.5 100.065 25.5C96.8342 25.5 94.2057 28.1285 94.2057 31.3594V34.0938H61.3932V31.3594C61.3932 28.1285 58.7646 25.5 55.5338 25.5C52.3029 25.5 49.6744 28.1285 49.6744 31.3594V34.166C49.5084 34.1201 49.3344 34.0938 49.1537 34.0938H41.3717C35.9869 34.0938 31.6061 38.4746 31.6061 43.8594V77.1275C31.6061 78.2063 32.4807 79.0807 33.5592 79.0807C34.6377 79.0807 35.5123 78.2063 35.5123 77.1275V54.2109H105.924C107.003 54.2109 107.878 53.3365 107.878 52.2578C107.878 51.1791 107.003 50.3047 105.924 50.3047H35.5123V43.8594C35.5123 40.6285 38.1408 38 41.3717 38H49.1537C49.3344 38 49.5084 37.9734 49.6744 37.9277V40.4414C49.6744 43.6723 52.3029 46.3008 55.5338 46.3008C58.7646 46.3008 61.3932 43.6723 61.3932 40.4414V38H94.2057V40.4414C94.2057 43.6723 96.8342 46.3008 100.065 46.3008C103.296 46.3008 105.924 43.6723 105.924 40.4414V38H115.234C118.465 38 121.094 40.6285 121.094 43.8594V118.077C121.094 120.016 119.516 121.594 117.577 121.594C115.638 121.594 114.06 120.016 114.06 118.077V113.024C114.06 111.946 113.186 111.071 112.107 111.071H89.3881C88.3096 111.071 87.435 111.946 87.435 113.024C87.435 114.103 88.3096 114.978 89.3881 114.978H110.154V118.077C110.154 119.349 110.476 120.546 111.042 121.594H32.4219C30.4834 121.594 28.9062 120.017 28.9062 118.078V114.978H72.6221C73.7006 114.978 74.5752 114.103 74.5752 113.024C74.5752 111.946 73.7006 111.071 72.6221 111.071H53.1072C56.5201 108.132 58.6873 103.784 58.6873 98.9375C58.6873 90.1064 51.5027 82.9219 42.6717 82.9219C33.8406 82.9219 26.6561 90.1064 26.6561 98.9375C26.6561 103.784 28.8232 108.132 32.2361 111.071H26.9531C25.8746 111.071 25 111.946 25 113.024V118.078C25 122.171 28.3295 125.5 32.4219 125.5H117.577C121.67 125.5 125 122.17 125 118.077V43.8594C125 38.4746 120.619 34.0938 115.234 34.0938ZM57.4869 40.4414C57.4869 41.5184 56.6107 42.3945 55.5338 42.3945C54.4568 42.3945 53.5807 41.5184 53.5807 40.4414V31.3594C53.5807 30.2824 54.4568 29.4062 55.5338 29.4062C56.6107 29.4062 57.4869 30.2824 57.4869 31.3594V40.4414ZM102.018 40.4414C102.018 41.5184 101.142 42.3945 100.065 42.3945C98.9881 42.3945 98.1119 41.5184 98.1119 40.4414V31.3594C98.1119 30.2824 98.9881 29.4062 100.065 29.4062C101.142 29.4062 102.018 30.2824 102.018 31.3594V40.4414ZM30.5623 98.9375C30.5623 92.2604 35.9945 86.8281 42.6717 86.8281C49.3488 86.8281 54.7811 92.2604 54.7811 98.9375C54.7811 105.615 49.3488 111.047 42.6717 111.047C35.9945 111.047 30.5623 105.615 30.5623 98.9375Z" fill="#2C67FE"/>
<path d="M116.467 50.877C116.104 50.5137 115.6 50.3047 115.086 50.3047C114.572 50.3047 114.068 50.5137 113.705 50.877C113.342 51.2402 113.133 51.7441 113.133 52.2578C113.133 52.7715 113.342 53.2754 113.705 53.6387C114.069 54.002 114.572 54.2109 115.086 54.2109C115.6 54.2109 116.104 54.002 116.467 53.6387C116.83 53.2754 117.039 52.7715 117.039 52.2578C117.039 51.7441 116.83 51.2402 116.467 50.877Z" fill="#2C67FE"/>
<path d="M83.3299 111.643C82.9668 111.279 82.4629 111.072 81.9492 111.072C81.4355 111.072 80.9316 111.279 80.5684 111.643C80.2051 112.008 79.9961 112.51 79.9961 113.023C79.9961 113.539 80.2049 114.041 80.5684 114.406C80.9316 114.77 81.4355 114.977 81.9492 114.977C82.4629 114.977 82.9668 114.77 83.3299 114.406C83.6932 114.041 83.9023 113.537 83.9023 113.023C83.9023 112.51 83.6934 112.008 83.3299 111.643Z" fill="#2C67FE"/>
<path d="M69.1885 84.875C65.0961 84.875 61.7666 88.2045 61.7666 92.2969C61.7666 96.3893 65.0961 99.7188 69.1885 99.7188C73.2809 99.7188 76.6104 96.3893 76.6104 92.2969C76.6104 88.2045 73.2809 84.875 69.1885 84.875ZM69.1885 95.8125C67.25 95.8125 65.6729 94.2354 65.6729 92.2969C65.6729 90.3584 67.25 88.7812 69.1885 88.7812C71.127 88.7812 72.7041 90.3584 72.7041 92.2969C72.7041 94.2354 71.127 95.8125 69.1885 95.8125Z" fill="#2C67FE"/>
<path d="M87.4175 84.875C83.3251 84.875 79.9956 88.2045 79.9956 92.2969C79.9956 96.3893 83.3251 99.7188 87.4175 99.7188C91.5099 99.7188 94.8394 96.3893 94.8394 92.2969C94.8394 88.2045 91.5099 84.875 87.4175 84.875ZM87.4175 95.8125C85.479 95.8125 83.9019 94.2354 83.9019 92.2969C83.9019 90.3584 85.479 88.7812 87.4175 88.7812C89.356 88.7812 90.9331 90.3584 90.9331 92.2969C90.9331 94.2354 89.356 95.8125 87.4175 95.8125Z" fill="#2C67FE"/>
<path d="M105.647 84.875C101.555 84.875 98.2251 88.2045 98.2251 92.2969C98.2251 96.3893 101.555 99.7188 105.647 99.7188C109.739 99.7188 113.069 96.3893 113.069 92.2969C113.069 88.2045 109.739 84.875 105.647 84.875ZM105.647 95.8125C103.708 95.8125 102.131 94.2354 102.131 92.2969C102.131 90.3584 103.708 88.7812 105.647 88.7812C107.585 88.7812 109.163 90.3584 109.163 92.2969C109.163 94.2354 107.585 95.8125 105.647 95.8125Z" fill="#2C67FE"/>
<path d="M50.9595 64.5625C46.8671 64.5625 43.5376 67.892 43.5376 71.9844C43.5376 76.0768 46.8671 79.4062 50.9595 79.4062C55.0519 79.4062 58.3813 76.0768 58.3813 71.9844C58.3813 67.892 55.0519 64.5625 50.9595 64.5625ZM50.9595 75.5C49.021 75.5 47.4438 73.9229 47.4438 71.9844C47.4438 70.0459 49.021 68.4688 50.9595 68.4688C52.8979 68.4688 54.4751 70.0459 54.4751 71.9844C54.4751 73.9229 52.8979 75.5 50.9595 75.5Z" fill="#2C67FE"/>
<path d="M87.4175 64.5625C83.3251 64.5625 79.9956 67.892 79.9956 71.9844C79.9956 76.0768 83.3251 79.4062 87.4175 79.4062C91.5099 79.4062 94.8394 76.0768 94.8394 71.9844C94.8394 67.892 91.5099 64.5625 87.4175 64.5625ZM87.4175 75.5C85.479 75.5 83.9019 73.9229 83.9019 71.9844C83.9019 70.0459 85.479 68.4688 87.4175 68.4688C89.356 68.4688 90.9331 70.0459 90.9331 71.9844C90.9331 73.9229 89.356 75.5 87.4175 75.5Z" fill="#2C67FE"/>
<path d="M105.647 64.5625C101.555 64.5625 98.2251 67.892 98.2251 71.9844C98.2251 76.0768 101.555 79.4062 105.647 79.4062C109.739 79.4062 113.069 76.0768 113.069 71.9844C113.069 67.892 109.739 64.5625 105.647 64.5625ZM105.647 75.5C103.708 75.5 102.131 73.9229 102.131 71.9844C102.131 70.0459 103.708 68.4688 105.647 68.4688C107.585 68.4688 109.163 70.0459 109.163 71.9844C109.163 73.9229 107.585 75.5 105.647 75.5Z" fill="#2C67FE"/>
<path d="M69.1885 64.5625C65.0961 64.5625 61.7666 67.892 61.7666 71.9844C61.7666 76.0768 65.0961 79.4062 69.1885 79.4062C73.2809 79.4062 76.6104 76.0768 76.6104 71.9844C76.6104 67.892 73.2809 64.5625 69.1885 64.5625ZM69.1885 75.5C67.25 75.5 65.6729 73.9229 65.6729 71.9844C65.6729 70.0459 67.25 68.4688 69.1885 68.4688C71.127 68.4688 72.7041 70.0459 72.7041 71.9844C72.7041 73.9229 71.127 75.5 69.1885 75.5Z" fill="#2C67FE"/>
<path d="M49.6298 94.1775C48.8669 93.4148 47.6306 93.4148 46.8675 94.1775L40.507 100.538L38.3333 98.3646C37.5705 97.6019 36.3341 97.6019 35.571 98.3646C34.8083 99.1273 34.8083 100.364 35.571 101.127L39.1259 104.681C39.4923 105.048 39.989 105.253 40.507 105.253C41.025 105.253 41.5216 105.048 41.888 104.681L49.6298 96.9396C50.3925 96.1769 50.3925 94.9402 49.6298 94.1775Z" fill="#2C67FE"/>
</g>
<defs>
<clipPath id="clip0_7179_77644">
<rect width="100" height="100" fill="white" transform="translate(25 25.5)"/>
</clipPath>
</defs>
</svg>
