<svg width="118" height="117" viewBox="0 0 118 117" fill="none" xmlns="http://www.w3.org/2000/svg">
<g clip-path="url(#clip0_7179_77658)">
<path d="M95.452 15.0512C85.7725 5.44011 72.9567 0.161133 59.3252 0.161133C59.201 0.161133 59.0752 0.161589 58.9508 0.1625C51.6908 0.214002 44.6735 1.77024 38.0937 4.78767C31.7453 7.69914 26.1295 11.8129 21.4027 17.0147C20.768 17.7131 20.8195 18.7942 21.5182 19.4291C22.2165 20.0638 23.2976 20.0125 23.9327 19.3136C28.3478 14.4548 33.5919 10.6129 39.5189 7.8949C45.6564 5.08005 52.2022 3.62864 58.9752 3.58079C59.0921 3.57988 59.2078 3.57942 59.3245 3.57942C72.0465 3.57942 84.0096 8.507 93.0434 17.4768C102.161 26.53 107.182 38.5914 107.182 51.4393C107.182 60.0138 104.888 68.4241 100.549 75.7618C96.3343 82.8881 90.3129 88.835 83.1356 92.9599C82.3173 93.4303 82.0352 94.4749 82.5053 95.2935C82.8216 95.8434 83.3968 96.1512 83.9888 96.1512C84.2778 96.1512 84.5706 96.0781 84.8389 95.9238C92.5268 91.5051 98.9767 85.135 103.491 77.502C108.142 69.6376 110.6 60.6254 110.6 51.4393C110.6 37.6739 105.221 24.7509 95.452 15.0512Z" fill="#2C67FE"/>
<path d="M77.1755 95.854C75.6329 96.4745 74.0482 97.0178 72.4655 97.469C70.1466 98.1294 68.2152 99.6285 67.0271 101.689L60.7326 112.606C60.3083 113.341 59.6048 113.42 59.322 113.42C59.0392 113.42 58.3357 113.341 57.9116 112.606L51.6174 101.689C50.4292 99.6287 48.497 98.1299 46.1764 97.4684C36.4391 94.6927 27.6477 88.7262 21.4223 80.6672C14.998 72.351 11.5541 62.389 11.4641 51.8583C11.3803 42.082 14.2646 32.6343 19.805 24.5364C20.338 23.7573 20.1386 22.6937 19.3597 22.1607C18.5808 21.6272 17.5168 21.8273 16.984 22.606C11.0469 31.2834 7.95628 41.4089 8.04584 51.8875C8.14269 63.1704 11.8326 73.845 18.7173 82.7569C25.3859 91.3893 34.8049 97.7812 45.2396 100.755C46.701 101.172 47.9143 102.11 48.6563 103.396L54.9505 114.313C55.862 115.895 57.4964 116.839 59.322 116.839C61.1476 116.839 62.782 115.895 63.6938 114.313L69.9882 103.397C70.7302 102.11 71.9426 101.172 73.4022 100.757C75.0997 100.273 76.7983 99.6902 78.451 99.0253C79.3267 98.673 79.7511 97.6776 79.3988 96.8018C79.0464 95.9256 78.0501 95.5017 77.1755 95.854Z" fill="#2C67FE"/>
<path d="M60.7549 68.3557H57.8891C55.0892 68.3557 52.8115 70.6334 52.8115 73.4332V75.7417C52.8115 78.5415 55.0892 80.8195 57.8891 80.8195H60.7549C63.5547 80.8195 65.8325 78.5415 65.8325 75.7417V73.4332C65.8325 70.6334 63.5547 68.3557 60.7549 68.3557ZM62.4142 75.7417C62.4142 76.6569 61.6697 77.4012 60.7549 77.4012H57.8891C56.9741 77.4012 56.2298 76.6567 56.2298 75.7417V73.4332C56.2298 72.5183 56.9743 71.774 57.8891 71.774H60.7549C61.6699 71.774 62.4142 72.5185 62.4142 73.4332V75.7417Z" fill="#2C67FE"/>
<path d="M59.3222 23.9073C65.8614 23.9073 71.5588 28.3326 73.1775 34.6688C73.4111 35.5835 74.3427 36.1357 75.2565 35.9016C76.171 35.668 76.7231 34.7374 76.4893 33.8226C74.4839 25.9722 67.4247 20.489 59.3222 20.489C49.5532 20.489 41.6055 28.4368 41.6055 38.2058C41.6055 41.5812 44.3515 44.327 47.7267 44.327C51.1019 44.327 53.848 41.581 53.848 38.2058C53.848 35.1872 56.3037 32.7315 59.322 32.7315C62.3406 32.7315 64.7963 35.1872 64.7963 38.2058C64.7963 41.2241 62.3406 43.6798 59.322 43.6798C55.9466 43.6798 53.2008 46.4258 53.2008 49.8011V59.4707C53.2008 62.8459 55.9468 65.5917 59.322 65.5917C62.6972 65.5917 65.443 62.8457 65.443 59.4707V54.8319C71.2564 52.6795 75.6318 47.5274 76.7498 41.3852C76.9187 40.4566 76.3029 39.5669 75.3743 39.3976C74.447 39.231 73.556 39.8445 73.3867 40.7731C72.4216 46.0758 68.4472 50.4635 63.2622 51.9523C62.5293 52.1626 62.0245 52.8329 62.0245 53.5951V59.4707C62.0245 60.9611 60.8122 62.1734 59.3218 62.1734C57.8314 62.1734 56.6188 60.9611 56.6188 59.4707V49.8011C56.6188 48.3107 57.8314 47.0981 59.3218 47.0981C64.2252 47.0981 68.2143 43.109 68.2143 38.2058C68.2143 33.3026 64.2254 29.3132 59.3222 29.3132C54.419 29.3132 50.4299 33.3026 50.4299 38.2058C50.4299 39.6961 49.2173 40.9087 47.7269 40.9087C46.2366 40.9087 45.024 39.6961 45.024 38.2058C45.0238 30.3216 51.4378 23.9073 59.3222 23.9073Z" fill="#2C67FE"/>
</g>
<defs>
<clipPath id="clip0_7179_77658">
<rect width="116.678" height="116.678" fill="white" transform="translate(0.983398 0.161133)"/>
</clipPath>
</defs>
</svg>
