<svg width="150" height="151" viewBox="0 0 150 151" fill="none" xmlns="http://www.w3.org/2000/svg">
<circle cx="75" cy="75.5" r="75" fill="#E4F0F4"/>
<path d="M104.312 119.094H39.625C39.252 119.094 38.8944 118.946 38.6306 118.682C38.3669 118.418 38.2188 118.06 38.2188 117.688V33.3125C38.2188 32.9395 38.3669 32.5819 38.6306 32.3181C38.8944 32.0544 39.252 31.9062 39.625 31.9062H86.0312C86.4042 31.9063 86.7618 32.0545 87.0255 32.3183L105.307 50.5995C105.57 50.8632 105.719 51.2208 105.719 51.5938V89.5625C105.719 89.9355 105.571 90.2931 105.307 90.5569C105.043 90.8206 104.685 90.9688 104.312 90.9688C103.94 90.9688 103.582 90.8206 103.318 90.5569C103.054 90.2931 102.906 89.9355 102.906 89.5625V52.1759L85.4491 34.7188H41.0312V116.281H104.312C104.685 116.281 105.043 116.429 105.307 116.693C105.571 116.957 105.719 117.315 105.719 117.688C105.719 118.06 105.571 118.418 105.307 118.682C105.043 118.946 104.685 119.094 104.312 119.094Z" fill="#229A9E"/>
<path d="M104.312 52.9997H86.0312C85.6583 52.9997 85.3006 52.8515 85.0369 52.5878C84.7732 52.3241 84.625 51.9664 84.625 51.5934V33.3122C84.6251 33.0341 84.7076 32.7623 84.8621 32.5311C85.0166 32.2999 85.2362 32.1197 85.4931 32.0133C85.7501 31.9069 86.0328 31.879 86.3055 31.9333C86.5783 31.9875 86.8288 32.1214 87.0255 32.318L105.307 50.5992C105.503 50.7959 105.637 51.0464 105.691 51.3192C105.746 51.5919 105.718 51.8746 105.611 52.1316C105.505 52.3885 105.325 52.6081 105.094 52.7626C104.862 52.9171 104.591 52.9996 104.312 52.9997ZM87.4375 50.1872H100.918L87.4375 36.7069V50.1872Z" fill="#229A9E"/>
<path d="M90.25 61.4375H63.5312C63.1583 61.4375 62.8006 61.2893 62.5369 61.0256C62.2732 60.7619 62.125 60.4042 62.125 60.0312C62.125 59.6583 62.2732 59.3006 62.5369 59.0369C62.8006 58.7732 63.1583 58.625 63.5312 58.625H90.25C90.623 58.625 90.9806 58.7732 91.2444 59.0369C91.5081 59.3006 91.6562 59.6583 91.6562 60.0312C91.6562 60.4042 91.5081 60.7619 91.2444 61.0256C90.9806 61.2893 90.623 61.4375 90.25 61.4375Z" fill="#229A9E"/>
<path d="M90.25 74.0938H63.5312C63.1583 74.0938 62.8006 73.9456 62.5369 73.6819C62.2732 73.4181 62.125 73.0605 62.125 72.6875C62.125 72.3145 62.2732 71.9569 62.5369 71.6931C62.8006 71.4294 63.1583 71.2812 63.5312 71.2812H90.25C90.623 71.2812 90.9806 71.4294 91.2444 71.6931C91.5081 71.9569 91.6562 72.3145 91.6562 72.6875C91.6562 73.0605 91.5081 73.4181 91.2444 73.6819C90.9806 73.9456 90.623 74.0938 90.25 74.0938Z" fill="#229A9E"/>
<path d="M90.25 86.75H63.5312C63.1583 86.75 62.8006 86.6018 62.5369 86.3381C62.2732 86.0744 62.125 85.7167 62.125 85.3438C62.125 84.9708 62.2732 84.6131 62.5369 84.3494C62.8006 84.0857 63.1583 83.9375 63.5312 83.9375H90.25C90.623 83.9375 90.9806 84.0857 91.2444 84.3494C91.5081 84.6131 91.6562 84.9708 91.6562 85.3438C91.6562 85.7167 91.5081 86.0744 91.2444 86.3381C90.9806 86.6018 90.623 86.75 90.25 86.75Z" fill="#229A9E"/>
<path d="M80.4062 99.4062H63.5312C63.1583 99.4062 62.8006 99.2581 62.5369 98.9944C62.2732 98.7306 62.125 98.373 62.125 98C62.125 97.627 62.2732 97.2694 62.5369 97.0056C62.8006 96.7419 63.1583 96.5938 63.5312 96.5938H80.4062C80.7792 96.5938 81.1369 96.7419 81.4006 97.0056C81.6643 97.2694 81.8125 97.627 81.8125 98C81.8125 98.373 81.6643 98.7306 81.4006 98.9944C81.1369 99.2581 80.7792 99.4062 80.4062 99.4062Z" fill="#229A9E"/>
<path d="M57.9062 64.25H52.2812C51.9083 64.25 51.5506 64.1018 51.2869 63.8381C51.0232 63.5744 50.875 63.2167 50.875 62.8438V57.2188C50.875 56.8458 51.0232 56.4881 51.2869 56.2244C51.5506 55.9607 51.9083 55.8125 52.2812 55.8125H57.9062C58.2792 55.8125 58.6369 55.9607 58.9006 56.2244C59.1643 56.4881 59.3125 56.8458 59.3125 57.2188V62.8438C59.3125 63.2167 59.1643 63.5744 58.9006 63.8381C58.6369 64.1018 58.2792 64.25 57.9062 64.25ZM53.6875 61.4375H56.5V58.625H53.6875V61.4375Z" fill="#229A9E"/>
<path d="M57.9062 76.9062H52.2812C51.9083 76.9062 51.5506 76.7581 51.2869 76.4944C51.0232 76.2306 50.875 75.873 50.875 75.5V69.875C50.875 69.502 51.0232 69.1444 51.2869 68.8806C51.5506 68.6169 51.9083 68.4688 52.2812 68.4688H57.9062C58.2792 68.4688 58.6369 68.6169 58.9006 68.8806C59.1643 69.1444 59.3125 69.502 59.3125 69.875V75.5C59.3125 75.873 59.1643 76.2306 58.9006 76.4944C58.6369 76.7581 58.2792 76.9062 57.9062 76.9062ZM53.6875 74.0938H56.5V71.2812H53.6875V74.0938Z" fill="#229A9E"/>
<path d="M57.9062 89.5625H52.2812C51.9083 89.5625 51.5506 89.4143 51.2869 89.1506C51.0232 88.8869 50.875 88.5292 50.875 88.1562V82.5312C50.875 82.1583 51.0232 81.8006 51.2869 81.5369C51.5506 81.2732 51.9083 81.125 52.2812 81.125H57.9062C58.2792 81.125 58.6369 81.2732 58.9006 81.5369C59.1643 81.8006 59.3125 82.1583 59.3125 82.5312V88.1562C59.3125 88.5292 59.1643 88.8869 58.9006 89.1506C58.6369 89.4143 58.2792 89.5625 57.9062 89.5625ZM53.6875 86.75H56.5V83.9375H53.6875V86.75Z" fill="#229A9E"/>
<path d="M57.9062 102.219H52.2812C51.9083 102.219 51.5506 102.071 51.2869 101.807C51.0232 101.543 50.875 101.185 50.875 100.812V95.1875C50.875 94.8145 51.0232 94.4569 51.2869 94.1931C51.5506 93.9294 51.9083 93.7812 52.2812 93.7812H57.9062C58.2792 93.7812 58.6369 93.9294 58.9006 94.1931C59.1643 94.4569 59.3125 94.8145 59.3125 95.1875V100.812C59.3125 101.185 59.1643 101.543 58.9006 101.807C58.6369 102.071 58.2792 102.219 57.9062 102.219ZM53.6875 99.4062H56.5V96.5938H53.6875V99.4062Z" fill="#229A9E"/>
<path d="M102.907 109.249C102.534 109.249 102.176 109.101 101.912 108.837L96.2873 103.212C96.0312 102.947 95.8894 102.592 95.8926 102.223C95.8958 101.854 96.0437 101.502 96.3045 101.241C96.5652 100.98 96.9179 100.832 97.2866 100.829C97.6553 100.826 98.0105 100.968 98.2758 101.224L102.907 105.855L111.756 97.0051C112.021 96.7489 112.377 96.6072 112.745 96.6104C113.114 96.6136 113.467 96.7615 113.727 97.0222C113.988 97.283 114.136 97.6357 114.139 98.0044C114.142 98.3731 114.001 98.7283 113.745 98.9935L103.901 108.837C103.637 109.101 103.279 109.249 102.907 109.249Z" fill="#229A9E"/>
<path d="M104.313 119.094C101.253 119.094 98.2624 118.187 95.7185 116.487C93.1747 114.787 91.192 112.371 90.0212 109.545C88.8505 106.718 88.5441 103.608 89.141 100.607C89.7378 97.6066 91.2111 94.8503 93.3744 92.6869C95.5378 90.5236 98.2941 89.0503 101.295 88.4535C104.295 87.8566 107.406 88.163 110.232 89.3337C113.059 90.5045 115.475 92.4872 117.174 95.031C118.874 97.5749 119.781 100.566 119.781 103.625C119.777 107.726 118.146 111.658 115.246 114.558C112.346 117.458 108.414 119.089 104.313 119.094ZM104.313 90.9688C101.809 90.9688 99.3624 91.711 97.2811 93.1017C95.1998 94.4924 93.5776 96.469 92.6197 98.7817C91.6617 101.094 91.4111 103.639 91.8994 106.094C92.3878 108.549 93.5932 110.804 95.3632 112.574C97.1332 114.344 99.3883 115.55 101.843 116.038C104.298 116.526 106.843 116.276 109.156 115.318C111.468 114.36 113.445 112.738 114.836 110.656C116.226 108.575 116.969 106.128 116.969 103.625C116.965 100.27 115.63 97.0525 113.258 94.6798C110.885 92.3071 107.668 90.9725 104.313 90.9688Z" fill="#229A9E"/>
</svg>
