<svg width="182" height="157" viewBox="0 0 182 157" fill="none" xmlns="http://www.w3.org/2000/svg">
<g clip-path="url(#clip0_7179_77672)">
<path d="M106.991 49.9386C106.991 22.2377 84.4365 -0.1955 56.6901 0.00128482C29.1965 0.196064 6.87957 22.8822 7.11513 50.3757C7.30902 73.0075 22.5588 92.0445 43.3364 97.9668C45.2158 98.5025 46.8219 99.7305 47.798 101.423L54.1395 112.421C55.4332 114.665 58.6709 114.665 59.9646 112.421L66.306 101.423C67.2817 99.7309 68.8868 98.5027 70.7652 97.9674C91.6774 92.008 106.991 72.763 106.991 49.9386Z" fill="#E4EAFE"/>
<path d="M58.4957 77.8158H55.6083C53.7341 77.8158 52.2148 76.2964 52.2148 74.4221V72.0964C52.2148 70.2221 53.7343 68.7029 55.6083 68.7029H58.4957C60.3699 68.7029 61.8892 70.2223 61.8892 72.0964V74.4221C61.8892 76.2966 60.3699 77.8158 58.4957 77.8158Z" fill="white"/>
<path d="M57.052 62.4748C54.5972 62.4748 52.6071 60.4847 52.6071 58.0299V48.2883C52.6071 45.8335 54.5972 43.8433 57.052 43.8433C61.0428 43.8433 64.2892 40.5967 64.2892 36.6064C64.2892 32.6157 61.0426 29.3693 57.052 29.3693C53.0615 29.3693 49.8151 32.6159 49.8151 36.6064C49.8151 39.0612 47.825 41.0514 45.3702 41.0514C42.9154 41.0514 40.9253 39.0612 40.9253 36.6064C40.9253 27.7139 48.1597 20.4792 57.0523 20.4792C65.9448 20.4792 73.1795 27.7139 73.1795 36.6064C73.1795 43.8445 68.3869 49.984 61.8079 52.018C61.6233 52.0751 61.4974 52.2458 61.4974 52.4388V58.0301C61.4972 60.4847 59.5071 62.4748 57.052 62.4748Z" fill="white"/>
</g>
<g clip-path="url(#clip1_7179_77672)">
<path d="M159.671 55.2126C149.991 45.6015 137.175 40.3225 123.544 40.3225C123.42 40.3225 123.294 40.323 123.17 40.3239C115.91 40.3754 108.892 41.9316 102.312 44.949C95.9641 47.8605 90.3483 51.9743 85.6214 57.176C84.9868 57.8745 85.0383 58.9556 85.737 59.5905C86.4352 60.2252 87.5163 60.1739 88.1514 59.475C92.5665 54.6162 97.8106 50.7743 103.738 48.0563C109.875 45.2414 116.421 43.79 123.194 43.7422C123.311 43.7413 123.427 43.7408 123.543 43.7408C136.265 43.7408 148.228 48.6684 157.262 57.6382C166.38 66.6914 171.401 78.7527 171.401 91.6007C171.401 100.175 169.107 108.586 164.768 115.923C160.553 123.049 154.532 128.996 147.354 133.121C146.536 133.592 146.254 134.636 146.724 135.455C147.04 136.005 147.616 136.313 148.208 136.313C148.497 136.313 148.789 136.239 149.058 136.085C156.746 131.666 163.195 125.296 167.71 117.663C172.361 109.799 174.819 100.787 174.819 91.6007C174.819 77.8353 169.439 64.9123 159.671 55.2126Z" fill="#2C67FE"/>
<path d="M141.394 136.015C139.852 136.636 138.267 137.179 136.684 137.63C134.365 138.291 132.434 139.79 131.246 141.851L124.951 152.767C124.527 153.502 123.824 153.582 123.541 153.582C123.258 153.582 122.554 153.502 122.13 152.767L115.836 141.85C114.648 139.79 112.716 138.291 110.395 137.63C100.658 134.854 91.8664 128.888 85.641 120.829C79.2167 112.512 75.7729 102.55 75.6829 92.0197C75.599 82.2434 78.4834 72.7957 84.0237 64.6978C84.5568 63.9187 84.3574 62.8551 83.5784 62.3221C82.7995 61.7886 81.7355 61.9887 81.2027 62.7674C75.2656 71.4448 72.175 81.5702 72.2646 92.0489C72.3614 103.332 76.0514 114.006 82.936 122.918C89.6047 131.551 99.0236 137.943 109.458 140.917C110.92 141.333 112.133 142.271 112.875 143.557L119.169 154.474C120.081 156.056 121.715 157 123.541 157C125.366 157 127.001 156.056 127.913 154.474L134.207 143.558C134.949 142.271 136.161 141.334 137.621 140.918C139.318 140.434 141.017 139.852 142.67 139.187C143.545 138.834 143.97 137.839 143.618 136.963C143.265 136.087 142.269 135.663 141.394 136.015Z" fill="#2C67FE"/>
<path d="M124.974 108.517H122.108C119.308 108.517 117.03 110.795 117.03 113.595V115.903C117.03 118.703 119.308 120.981 122.108 120.981H124.974C127.773 120.981 130.051 118.703 130.051 115.903V113.595C130.051 110.795 127.773 108.517 124.974 108.517ZM126.633 115.903C126.633 116.818 125.888 117.563 124.974 117.563H122.108C121.193 117.563 120.449 116.818 120.449 115.903V113.595C120.449 112.68 121.193 111.935 122.108 111.935H124.974C125.889 111.935 126.633 112.68 126.633 113.595V115.903Z" fill="#2C67FE"/>
<path d="M123.541 64.0687C130.08 64.0687 135.778 68.494 137.396 74.8301C137.63 75.7449 138.561 76.297 139.475 76.063C140.39 75.8294 140.942 74.8987 140.708 73.984C138.703 66.1336 131.643 60.6504 123.541 60.6504C113.772 60.6504 105.824 68.5981 105.824 78.3672C105.824 81.7426 108.57 84.4884 111.945 84.4884C115.321 84.4884 118.067 81.7424 118.067 78.3672C118.067 75.3486 120.522 72.8929 123.541 72.8929C126.559 72.8929 129.015 75.3486 129.015 78.3672C129.015 81.3855 126.559 83.8412 123.541 83.8412C120.165 83.8412 117.42 86.5872 117.42 89.9624V99.6321C117.42 103.007 120.166 105.753 123.541 105.753C126.916 105.753 129.662 103.007 129.662 99.6321V94.9933C135.475 92.8409 139.851 87.6888 140.969 81.5466C141.137 80.618 140.522 79.7283 139.593 79.559C138.666 79.3924 137.775 80.0059 137.605 80.9345C136.64 86.2372 132.666 90.6249 127.481 92.1137C126.748 92.324 126.243 92.9942 126.243 93.7565V99.6321C126.243 101.122 125.031 102.335 123.541 102.335C122.05 102.335 120.838 101.122 120.838 99.6321V89.9624C120.838 88.4721 122.05 87.2595 123.541 87.2595C128.444 87.2595 132.433 83.2703 132.433 78.3672C132.433 73.464 128.444 69.4746 123.541 69.4746C118.638 69.4746 114.649 73.464 114.649 78.3672C114.649 79.8575 113.436 81.0701 111.946 81.0701C110.455 81.0701 109.243 79.8575 109.243 78.3672C109.243 70.483 115.657 64.0687 123.541 64.0687Z" fill="#2C67FE"/>
</g>
<defs>
<clipPath id="clip0_7179_77672">
<rect width="114.104" height="114.104" fill="white"/>
</clipPath>
<clipPath id="clip1_7179_77672">
<rect width="116.678" height="116.678" fill="white" transform="translate(65.2021 40.3225)"/>
</clipPath>
</defs>
</svg>
