<svg width="182" height="157" viewBox="0 0 182 157" fill="none" xmlns="http://www.w3.org/2000/svg">
<g clip-path="url(#clip0_7611_5445)">
<path d="M107.051 49.9386C107.051 22.2377 84.4971 -0.1955 56.7507 0.00128482C29.257 0.196064 6.94011 22.8822 7.17568 50.3757C7.36956 73.0075 22.6194 92.0445 43.397 97.9668C45.2763 98.5025 46.8825 99.7305 47.8586 101.423L54.2 112.421C55.4937 114.665 58.7314 114.665 60.0251 112.421L66.3666 101.423C67.3423 99.7309 68.9473 98.5027 70.8258 97.9674C91.738 92.008 107.051 72.763 107.051 49.9386Z" fill="#E8EEFE"/>
<path d="M58.5562 77.8161H55.6689C53.7946 77.8161 52.2754 76.2966 52.2754 74.4224V72.0966C52.2754 70.2224 53.7948 68.7031 55.6689 68.7031H58.5562C60.4305 68.7031 61.9497 70.2226 61.9497 72.0966V74.4224C61.9497 76.2968 60.4305 77.8161 58.5562 77.8161Z" fill="white"/>
<path d="M57.1121 62.4741C54.6573 62.4741 52.6672 60.4839 52.6672 58.0291V48.2875C52.6672 45.8327 54.6573 43.8426 57.1121 43.8426C61.1028 43.8426 64.3492 40.596 64.3492 36.6057C64.3492 32.615 61.1026 29.3686 57.1121 29.3686C53.1216 29.3686 49.8752 32.6152 49.8752 36.6057C49.8752 39.0605 47.8851 41.0506 45.4303 41.0506C42.9755 41.0506 40.9854 39.0605 40.9854 36.6057C40.9854 27.7132 48.2198 20.4785 57.1123 20.4785C66.0048 20.4785 73.2395 27.7132 73.2395 36.6057C73.2395 43.8437 68.4469 49.9833 61.8679 52.0173C61.6834 52.0744 61.5575 52.2451 61.5575 52.4381V58.0294C61.5573 60.4839 59.5671 62.4741 57.1121 62.4741Z" fill="white"/>
</g>
<g clip-path="url(#clip1_7611_5445)">
<path d="M159.731 55.2123C150.051 45.6012 137.235 40.3223 123.604 40.3223C123.48 40.3223 123.354 40.3227 123.23 40.3236C115.97 40.3751 108.952 41.9314 102.373 44.9488C96.0241 47.8603 90.4083 51.9741 85.6815 57.1758C85.0468 57.8743 85.0983 58.9554 85.797 59.5903C86.4953 60.2249 87.5764 60.1736 88.2115 59.4747C92.6266 54.616 97.8707 50.774 103.798 48.056C109.935 45.2412 116.481 43.7898 123.254 43.7419C123.371 43.741 123.487 43.7406 123.603 43.7406C136.325 43.7406 148.288 48.6681 157.322 57.638C166.44 66.6912 171.461 78.7525 171.461 91.6005C171.461 100.175 169.167 108.585 164.828 115.923C160.613 123.049 154.592 128.996 147.414 133.121C146.596 133.591 146.314 134.636 146.784 135.455C147.1 136.005 147.676 136.312 148.268 136.312C148.557 136.312 148.849 136.239 149.118 136.085C156.806 131.666 163.255 125.296 167.77 117.663C172.421 109.799 174.879 100.787 174.879 91.6005C174.879 77.835 169.5 64.9121 159.731 55.2123Z" fill="#2043DA"/>
<path d="M141.455 136.016C139.912 136.636 138.328 137.179 136.745 137.631C134.426 138.291 132.495 139.79 131.306 141.851L125.012 152.767C124.588 153.502 123.884 153.582 123.601 153.582C123.318 153.582 122.615 153.502 122.191 152.767L115.897 141.851C114.709 139.79 112.776 138.292 110.456 137.63C100.718 134.854 91.927 128.888 85.7016 120.829C79.2773 112.513 75.8334 102.551 75.7434 92.02C75.6596 82.2437 78.5439 72.796 84.0843 64.698C84.6173 63.9189 84.4179 62.8554 83.639 62.3223C82.8601 61.7889 81.7961 61.9889 81.2633 62.7676C75.3262 71.4451 72.2356 81.5705 72.3251 92.0491C72.422 103.332 76.1119 114.007 82.9966 122.919C89.6652 131.551 99.0842 137.943 109.519 140.917C110.98 141.333 112.194 142.271 112.936 143.558L119.23 154.474C120.141 156.056 121.776 157 123.601 157C125.427 157 127.061 156.056 127.973 154.475L134.267 143.558C135.009 142.272 136.222 141.334 137.681 140.918C139.379 140.434 141.078 139.852 142.73 139.187C143.606 138.835 144.03 137.839 143.678 136.963C143.326 136.087 142.329 135.663 141.455 136.016Z" fill="#2043DA"/>
<path d="M125.034 108.518H122.168C119.369 108.518 117.091 110.795 117.091 113.595V115.904C117.091 118.703 119.369 120.981 122.168 120.981H125.034C127.834 120.981 130.112 118.703 130.112 115.904V113.595C130.112 110.795 127.834 108.518 125.034 108.518ZM126.693 115.904C126.693 116.819 125.949 117.563 125.034 117.563H122.168C121.253 117.563 120.509 116.819 120.509 115.904V113.595C120.509 112.68 121.254 111.936 122.168 111.936H125.034C125.949 111.936 126.693 112.68 126.693 113.595V115.904Z" fill="#2043DA"/>
<path d="M123.602 64.0687C130.141 64.0687 135.838 68.494 137.457 74.8301C137.69 75.7449 138.622 76.297 139.536 76.063C140.45 75.8294 141.002 74.8987 140.769 73.984C138.763 66.1336 131.704 60.6504 123.602 60.6504C113.833 60.6504 105.885 68.5981 105.885 78.3672C105.885 81.7426 108.631 84.4884 112.006 84.4884C115.381 84.4884 118.127 81.7424 118.127 78.3672C118.127 75.3486 120.583 72.8929 123.601 72.8929C126.62 72.8929 129.076 75.3486 129.076 78.3672C129.076 81.3855 126.62 83.8412 123.601 83.8412C120.226 83.8412 117.48 86.5872 117.48 89.9624V99.6321C117.48 103.007 120.226 105.753 123.601 105.753C126.977 105.753 129.722 103.007 129.722 99.6321V94.9933C135.536 92.8409 139.911 87.6888 141.029 81.5466C141.198 80.618 140.582 79.7283 139.654 79.559C138.726 79.3924 137.835 80.0059 137.666 80.9345C136.701 86.2372 132.727 90.6249 127.541 92.1137C126.809 92.324 126.304 92.9942 126.304 93.7565V99.6321C126.304 101.122 125.091 102.335 123.601 102.335C122.111 102.335 120.898 101.122 120.898 99.6321V89.9624C120.898 88.4721 122.111 87.2595 123.601 87.2595C128.504 87.2595 132.494 83.2703 132.494 78.3672C132.494 73.464 128.505 69.4746 123.602 69.4746C118.698 69.4746 114.709 73.464 114.709 78.3672C114.709 79.8575 113.497 81.0701 112.006 81.0701C110.516 81.0701 109.303 79.8575 109.303 78.3672C109.303 70.483 115.717 64.0687 123.602 64.0687Z" fill="#2043DA"/>
</g>
<defs>
<clipPath id="clip0_7611_5445">
<rect width="114.104" height="114.104" fill="white" transform="translate(0.0605469)"/>
</clipPath>
<clipPath id="clip1_7611_5445">
<rect width="116.678" height="116.678" fill="white" transform="translate(65.2627 40.3223)"/>
</clipPath>
</defs>
</svg>
