<svg width="150" height="151" viewBox="0 0 150 151" fill="none" xmlns="http://www.w3.org/2000/svg">
<circle cx="75" cy="75.5" r="75" fill="#E4F0F4"/>
<g clip-path="url(#clip0_7179_77588)">
<path d="M78.9753 71.1705C78.7662 71.1253 78.5517 71.1171 78.34 71.1488C76.2176 70.9017 74.6166 69.1061 74.613 66.9702C74.613 65.9466 73.7831 65.1167 72.7595 65.1167C71.7359 65.1167 70.906 65.9466 70.906 66.9702C70.9114 70.537 73.2971 73.6612 76.7362 74.6052V76.4587C76.7362 77.4823 77.5662 78.3122 78.5898 78.3122C79.6134 78.3122 80.4433 77.4823 80.4433 76.4587V74.7174C84.4128 73.8866 87.1107 70.1895 86.6935 66.1557C86.2754 62.1219 82.8769 59.0565 78.8215 59.0556C76.4973 59.0556 74.613 57.1713 74.613 54.8472C74.613 52.523 76.4973 50.6387 78.8215 50.6387C81.1456 50.6387 83.0299 52.523 83.0299 54.8472C83.0299 55.8708 83.8598 56.7007 84.8834 56.7007C85.907 56.7007 86.7369 55.8708 86.7369 54.8472C86.7315 51.1021 84.1078 47.872 80.4433 47.0991V45.4121C80.4433 44.3885 79.6134 43.5586 78.5898 43.5586C77.5662 43.5586 76.7362 44.3885 76.7362 45.4121V47.2122C72.9115 48.2567 70.4498 51.9701 70.9765 55.8997C71.5033 59.8294 74.8565 62.7627 78.8215 62.7618C81.1148 62.7618 82.9855 64.5981 83.0272 66.8906C83.0697 69.1831 81.2669 71.0873 78.9753 71.1705Z" fill="#229A9E"/>
<path d="M51.9434 61.0513C51.9434 75.8958 63.9768 87.9292 78.8213 87.9292C93.6658 87.9292 105.699 75.8958 105.699 61.0513C105.699 46.2068 93.6658 34.1733 78.8213 34.1733C63.984 34.1896 51.9606 46.214 51.9434 61.0513ZM78.8213 37.8804C91.6186 37.8804 101.992 48.254 101.992 61.0513C101.992 73.8486 91.6186 84.2222 78.8213 84.2222C66.024 84.2222 55.6504 73.8486 55.6504 61.0513C55.6649 48.2603 66.0303 37.8949 78.8213 37.8804Z" fill="#229A9E"/>
<path d="M114.837 92.4987L100.317 99.3589C98.3123 95.6302 94.4668 93.2571 90.2348 93.1377L76.8311 92.7693C74.7088 92.7087 72.6263 92.1711 70.7393 91.1964L69.3754 90.4895C62.3921 86.8494 54.0684 86.8585 47.0924 90.5131L47.1774 87.4232C47.2055 86.3996 46.3991 85.5471 45.3755 85.519L30.6776 85.1145C29.654 85.0864 28.8024 85.8928 28.7743 86.9164L27.8865 119.17C27.8584 120.194 28.6648 121.046 29.6884 121.075L44.3863 121.479H44.437C45.4416 121.479 46.2633 120.68 46.2905 119.676L46.333 118.133L50.1514 116.089C51.6501 115.282 53.4023 115.09 55.0395 115.554L77.8412 121.953C77.881 121.965 77.9208 121.974 77.9615 121.983C79.6096 122.328 81.2894 122.501 82.9727 122.5C86.5386 122.502 90.0628 121.733 93.3038 120.246C93.3834 120.209 93.4604 120.167 93.5337 120.119L126.594 98.7345C127.418 98.2014 127.684 97.1199 127.201 96.2655C124.747 91.9104 119.303 90.2515 114.837 92.4987ZM31.6433 117.42L32.4289 88.8713L43.4206 89.1736L42.635 117.723L31.6433 117.42ZM91.634 116.935C87.6075 118.752 83.1103 119.254 78.7824 118.369L56.0423 111.986C53.4829 111.263 50.7433 111.563 48.4019 112.821L46.4507 113.867L46.9729 94.8853C53.1561 90.7728 61.0861 90.3501 67.6712 93.7812L69.0351 94.488C71.419 95.7189 74.0481 96.3976 76.7298 96.4755L90.1343 96.8438C93.8993 96.9524 97.0968 99.6332 97.8607 103.322L77.8946 102.771C76.871 102.743 76.0193 103.55 75.9903 104.573C75.9623 105.596 76.7696 106.449 77.7923 106.477L99.8264 107.083H99.878C100.882 107.083 101.703 106.283 101.73 105.281C101.752 104.475 101.693 103.669 101.551 102.876L116.443 95.8392C116.457 95.8329 116.472 95.8257 116.486 95.8184C118.599 94.7496 121.153 95.1071 122.891 96.7153L91.634 116.935Z" fill="#229A9E"/>
<path d="M80.6748 28.962V11.3535C80.6748 10.3299 79.8449 9.5 78.8213 9.5C77.7977 9.5 76.9678 10.3299 76.9678 11.3535V28.962C76.9678 29.9856 77.7977 30.8156 78.8213 30.8156C79.8449 30.8156 80.6748 29.9856 80.6748 28.962Z" fill="#229A9E"/>
<path d="M94.5762 28.962V20.6211C94.5762 19.5975 93.7463 18.7676 92.7227 18.7676C91.6991 18.7676 90.8691 19.5975 90.8691 20.6211V28.962C90.8691 29.9856 91.6991 30.8155 92.7227 30.8155C93.7463 30.8155 94.5762 29.9856 94.5762 28.962Z" fill="#229A9E"/>
<path d="M66.7735 28.962V20.6211C66.7735 19.5975 65.9435 18.7676 64.9199 18.7676C63.8963 18.7676 63.0664 19.5975 63.0664 20.6211V28.962C63.0664 29.9856 63.8963 30.8155 64.9199 30.8155C65.9435 30.8155 66.7735 29.9856 66.7735 28.962Z" fill="#229A9E"/>
</g>
<defs>
<clipPath id="clip0_7179_77588">
<rect width="113" height="113" fill="white" transform="translate(21 9.5)"/>
</clipPath>
</defs>
</svg>
