<svg width="115" height="115" viewBox="0 0 115 115" fill="none" xmlns="http://www.w3.org/2000/svg">
<g clip-path="url(#clip0_7179_77651)">
<path d="M107.871 50.3866C107.871 22.6857 85.3164 0.252498 57.57 0.449283C30.0763 0.644062 7.75945 23.3302 7.99501 50.8237C8.1889 73.4555 23.4387 92.4925 44.2163 98.4148C46.0957 98.9505 47.7018 100.178 48.6779 101.871L55.0194 112.869C56.3131 115.113 59.5508 115.113 60.8445 112.869L67.1859 101.871C68.1616 100.179 69.7666 98.9507 71.6451 98.4154C92.5573 92.456 107.871 73.211 107.871 50.3866Z" fill="#E4EAFE"/>
<path d="M59.3756 78.2638H56.4882C54.614 78.2638 53.0947 76.7444 53.0947 74.8701V72.5444C53.0947 70.6701 54.6142 69.1509 56.4882 69.1509H59.3756C61.2498 69.1509 62.769 70.6703 62.769 72.5444V74.8701C62.769 76.7446 61.2498 78.2638 59.3756 78.2638Z" fill="white"/>
<path d="M57.9319 62.9228C55.4771 62.9228 53.487 60.9327 53.487 58.4779V48.7363C53.487 46.2815 55.4771 44.2913 57.9319 44.2913C61.9227 44.2913 65.169 41.0447 65.169 37.0544C65.169 33.0637 61.9224 29.8173 57.9319 29.8173C53.9414 29.8173 50.695 33.0639 50.695 37.0544C50.695 39.5092 48.7049 41.4994 46.2501 41.4994C43.7953 41.4994 41.8052 39.5092 41.8052 37.0544C41.8052 28.1619 49.0396 20.9272 57.9321 20.9272C66.8247 20.9272 74.0593 28.1619 74.0593 37.0544C74.0593 44.2925 69.2668 50.432 62.6877 52.466C62.5032 52.5231 62.3773 52.6938 62.3773 52.8868V58.4781C62.3771 60.9327 60.3869 62.9228 57.9319 62.9228Z" fill="white"/>
</g>
<defs>
<clipPath id="clip0_7179_77651">
<rect width="114.104" height="114.104" fill="white" transform="translate(0.879883 0.447998)"/>
</clipPath>
</defs>
</svg>
