<svg width="150" height="151" viewBox="0 0 150 151" fill="none" xmlns="http://www.w3.org/2000/svg">
<circle cx="75" cy="75.5" r="75" fill="#DEE3FD"/>
<path fill-rule="evenodd" clip-rule="evenodd" d="M73.8357 30.0745C70.7129 36.5628 59.588 42.8561 73.3063 52.8569C77.0878 55.6621 83.4309 57.3695 80.1959 63.9823C79.9081 64.4872 80.4106 64.6262 80.8595 64.2482C85.4949 58.8818 93.0335 50.3933 86.6855 43.4805C83.0748 39.5777 75.6825 37.0165 74.209 33.3089C73.9235 32.5917 74.2383 31.5551 74.6335 30.7355C74.9506 29.9744 74.0065 29.7744 73.8381 30.072L73.8357 30.0745Z" fill="#2C67FE"/>
<path fill-rule="evenodd" clip-rule="evenodd" d="M74.0042 30.0745C70.8814 36.5628 59.7565 42.8561 73.4747 52.8569C77.2562 55.6621 83.5994 57.3695 80.3644 63.9823C80.0765 64.4872 80.5791 64.6262 81.028 64.2482C85.6634 58.8818 93.202 50.3933 86.8539 43.4805C83.2432 39.5777 75.851 37.0165 74.3774 33.3089C74.092 32.5917 74.4067 31.5551 74.8019 30.7355C75.1191 29.9744 74.1749 29.7744 74.0066 30.072L74.0042 30.0745Z" fill="#2C67FE"/>
<path fill-rule="evenodd" clip-rule="evenodd" d="M67.4243 52.532C65.8214 56.8982 57.7144 61.923 68.5368 67.7187C71.0497 69.2139 74.27 71.0848 73.9236 73.8216C73.7894 74.1704 74.1041 74.2192 74.3432 73.9363C77.9051 69.8384 80.5888 64.0086 76.2193 60.0814C73.9382 57.8715 68.5344 56.6665 67.9537 52.893C68.0854 52.3759 67.4999 52.3271 67.4219 52.5344L67.4243 52.532Z" fill="#2C67FE"/>
<path d="M60.084 75.5293H87.4401V78.8881H60.084V75.5293Z" fill="#2C67FE"/>
<path fill-rule="evenodd" clip-rule="evenodd" d="M60.1154 75.4365L58.9077 78.8295L60.979 78.8588L60.1154 75.4365ZM87.4153 75.4365L88.623 78.8295L86.5517 78.8588L87.4153 75.4365ZM65.851 77.9855L67.8686 83.4714L79.7279 83.4299L81.5845 77.9855H65.8535H65.851Z" fill="#2C67FE"/>
<path d="M51.4644 86.3669H55.0751V102.593H51.4644V86.3669Z" fill="#2C67FE"/>
<path fill-rule="evenodd" clip-rule="evenodd" d="M55.0242 86.365L60.8721 86.4162C63.7753 86.3382 65.9954 91.5142 62.2456 94.2949C67.247 95.6926 65.4416 102.466 61.4332 102.479L54.9754 102.581L54.0605 99.632L60.2134 99.6832C62.1627 99.7393 62.2871 95.8048 60.2646 95.7682L54.6216 95.8707L54.4679 92.8216H59.501C61.7943 92.9168 61.0819 89.2604 59.5522 89.2628L54.5192 89.1604L54.0117 86.8724L55.0291 86.365H55.0242Z" fill="#2C67FE"/>
<path d="M67.0566 86.3669H70.6674V102.593H67.0566V86.3669Z" fill="#2C67FE"/>
<path fill-rule="evenodd" clip-rule="evenodd" d="M70.616 86.365L76.4639 86.4162C79.3671 86.3382 81.5872 91.5142 77.8374 94.2949C82.8387 95.6926 81.0334 102.466 77.025 102.479L70.5672 102.581L69.6523 99.632L75.8052 99.6832C77.7545 99.7393 77.8789 95.8048 75.8564 95.7682L70.2134 95.8707L70.0597 92.8216H75.0928C77.3861 92.9168 76.6737 89.2604 75.144 89.2628L70.111 89.1604L69.6035 86.8724L70.6209 86.365H70.616Z" fill="#2C67FE"/>
<path d="M82.48 86.3669H86.0907V102.593H82.48V86.3669Z" fill="#2C67FE"/>
<path fill-rule="evenodd" clip-rule="evenodd" d="M86.0393 86.365L91.8872 86.4162C94.7904 86.3382 97.0105 91.5142 93.2608 94.2949C98.2621 95.6926 96.4567 102.466 92.4484 102.479L85.9905 102.581L85.0756 99.632L91.2285 99.6832C93.1778 99.7393 93.3022 95.8048 91.2797 95.7682L85.6368 95.8707L85.4831 92.8216H90.5161C92.8094 92.9168 92.097 89.2604 90.5674 89.2628L85.5343 89.1604L85.0269 86.8724L86.0442 86.365H86.0393Z" fill="#2C67FE"/>
<path d="M44.6338 119.5L43.9092 117.121H40.2656L39.541 119.5H37.2578L40.7852 109.465H43.376L46.917 119.5H44.6338ZM43.4033 115.344C42.7334 113.188 42.3551 111.969 42.2686 111.687C42.1865 111.404 42.1273 111.181 42.0908 111.017C41.9404 111.6 41.5098 113.042 40.7988 115.344H43.4033ZM50.1709 115.316H47.5254V113.819H50.1709V111.153H51.668V113.819H54.3135V115.316H51.668V117.948H50.1709V115.316ZM61.9355 113.942H62.6191C63.2891 113.942 63.7835 113.831 64.1025 113.607C64.4215 113.384 64.5811 113.033 64.5811 112.555C64.5811 112.081 64.417 111.743 64.0889 111.543C63.7653 111.342 63.2617 111.242 62.5781 111.242H61.9355V113.942ZM61.9355 115.665V119.5H59.8164V109.506H62.7285C64.0866 109.506 65.0915 109.754 65.7432 110.251C66.3949 110.743 66.7207 111.493 66.7207 112.5C66.7207 113.088 66.5589 113.612 66.2354 114.072C65.9118 114.528 65.4538 114.886 64.8613 115.146C66.3652 117.392 67.3451 118.844 67.8008 119.5H65.4492L63.0635 115.665H61.9355ZM75.1768 119.5L74.4521 117.121H70.8086L70.084 119.5H67.8008L71.3281 109.465H73.9189L77.46 119.5H75.1768ZM73.9463 115.344C73.2764 113.188 72.8981 111.969 72.8115 111.687C72.7295 111.404 72.6702 111.181 72.6338 111.017C72.4834 111.6 72.0527 113.042 71.3418 115.344H73.9463ZM82.5801 119.5H80.4609V111.27H77.7471V109.506H85.2939V111.27H82.5801V119.5ZM86.832 119.5V109.506H88.9512V119.5H86.832ZM100.333 119.5H97.6396L93.292 111.939H93.2305C93.3171 113.275 93.3604 114.227 93.3604 114.797V119.5H91.4668V109.506H94.1396L98.4805 116.991H98.5283C98.46 115.692 98.4258 114.774 98.4258 114.236V109.506H100.333V119.5ZM106.649 113.888H110.614V119.069C109.972 119.279 109.366 119.425 108.796 119.507C108.231 119.593 107.652 119.637 107.06 119.637C105.551 119.637 104.398 119.195 103.601 118.311C102.808 117.422 102.411 116.148 102.411 114.489C102.411 112.876 102.871 111.618 103.792 110.716C104.717 109.813 105.998 109.362 107.634 109.362C108.659 109.362 109.648 109.567 110.601 109.978L109.896 111.673C109.167 111.308 108.409 111.126 107.62 111.126C106.704 111.126 105.97 111.434 105.419 112.049C104.868 112.664 104.592 113.491 104.592 114.53C104.592 115.615 104.813 116.444 105.255 117.019C105.701 117.588 106.349 117.873 107.196 117.873C107.638 117.873 108.087 117.827 108.543 117.736V115.651H106.649V113.888Z" fill="#2C67FE"/>
</svg>
