<svg width="150" height="150" viewBox="0 0 150 150" fill="none" xmlns="http://www.w3.org/2000/svg">
<circle cx="75" cy="75" r="75" fill="#F6FEF9" fill-opacity="0.5"/>
<path d="M78.9748 70.6705C78.7658 70.6253 78.5513 70.6171 78.3395 70.6488C76.2172 70.4017 74.6161 68.6061 74.6125 66.4702C74.6125 65.4466 73.7826 64.6167 72.759 64.6167C71.7354 64.6167 70.9055 65.4466 70.9055 66.4702C70.9109 70.037 73.2966 73.1612 76.7357 74.1052V75.9587C76.7357 76.9823 77.5657 77.8122 78.5893 77.8122C79.6129 77.8122 80.4428 76.9823 80.4428 75.9587V74.2174C84.4123 73.3866 87.1102 69.6895 86.693 65.6557C86.2749 61.6219 82.8765 58.5565 78.821 58.5556C76.4968 58.5556 74.6125 56.6713 74.6125 54.3472C74.6125 52.023 76.4968 50.1387 78.821 50.1387C81.1451 50.1387 83.0294 52.023 83.0294 54.3472C83.0294 55.3708 83.8593 56.2007 84.8829 56.2007C85.9065 56.2007 86.7365 55.3708 86.7365 54.3472C86.731 50.6021 84.1073 47.372 80.4428 46.5991V44.9121C80.4428 43.8885 79.6129 43.0586 78.5893 43.0586C77.5657 43.0586 76.7357 43.8885 76.7357 44.9121V46.7122C72.911 47.7567 70.4493 51.4701 70.9761 55.3997C71.5028 59.3294 74.856 62.2627 78.821 62.2618C81.1143 62.2618 82.9851 64.0981 83.0267 66.3906C83.0692 68.6831 81.2664 70.5873 78.9748 70.6705Z" fill="#229A9E"/>
<path d="M51.9434 60.5518C51.9434 75.3963 63.9768 87.4297 78.8213 87.4297C93.6658 87.4297 105.699 75.3963 105.699 60.5518C105.699 45.7073 93.6658 33.6738 78.8213 33.6738C63.984 33.6901 51.9606 45.7145 51.9434 60.5518ZM78.8213 37.3809C91.6186 37.3809 101.992 47.7545 101.992 60.5518C101.992 73.3491 91.6186 83.7227 78.8213 83.7227C66.024 83.7227 55.6504 73.3491 55.6504 60.5518C55.6649 47.7608 66.0303 37.3954 78.8213 37.3809Z" fill="#229A9E"/>
<path d="M114.837 91.9982L100.317 98.8585C98.3123 95.1297 94.4668 92.7567 90.2348 92.6372L76.8311 92.2688C74.7088 92.2082 72.6263 91.6706 70.7393 90.6959L69.3754 89.989C62.3921 86.349 54.0684 86.358 47.0924 90.0126L47.1774 86.9228C47.2055 85.8992 46.3991 85.0466 45.3755 85.0185L30.6776 84.614C29.654 84.5859 28.8024 85.3923 28.7743 86.4159L27.8865 118.67C27.8584 119.693 28.6648 120.546 29.6884 120.574L44.3863 120.979H44.437C45.4416 120.979 46.2633 120.179 46.2905 119.176L46.333 117.633L50.1514 115.588C51.6501 114.782 53.4023 114.59 55.0395 115.053L77.8412 121.453C77.881 121.465 77.9208 121.474 77.9615 121.483C79.6096 121.828 81.2894 122 82.9727 121.999C86.5386 122.001 90.0628 121.233 93.3038 119.745C93.3834 119.709 93.4604 119.666 93.5337 119.618L126.594 98.234C127.418 97.7009 127.684 96.6194 127.201 95.765C124.747 91.41 119.303 89.751 114.837 91.9982ZM31.6433 116.919L32.4289 88.3708L43.4206 88.6731L42.635 117.223L31.6433 116.919ZM91.634 116.434C87.6075 118.252 83.1103 118.753 78.7824 117.869L56.0423 111.486C53.4829 110.762 50.7433 111.062 48.4019 112.321L46.4507 113.366L46.9729 94.3848C53.1561 90.2723 61.0861 89.8497 67.6712 93.2807L69.0351 93.9875C71.419 95.2184 74.0481 95.8972 76.7298 95.975L90.1343 96.3433C93.8993 96.4519 97.0968 99.1327 97.8607 102.822L77.8946 102.27C76.871 102.242 76.0193 103.05 75.9903 104.072C75.9623 105.096 76.7696 105.949 77.7923 105.977L99.8264 106.583H99.878C100.882 106.582 101.703 105.783 101.73 104.78C101.752 103.975 101.693 103.168 101.551 102.375L116.443 95.3387C116.457 95.3324 116.472 95.3252 116.486 95.3179C118.599 94.2491 121.153 94.6066 122.891 96.2148L91.634 116.434Z" fill="#229A9E"/>
<path d="M80.6748 28.462V10.8535C80.6748 9.82992 79.8449 9 78.8213 9C77.7977 9 76.9678 9.82992 76.9678 10.8535V28.462C76.9678 29.4856 77.7977 30.3156 78.8213 30.3156C79.8449 30.3156 80.6748 29.4856 80.6748 28.462Z" fill="#229A9E"/>
<path d="M94.5762 28.462V20.1211C94.5762 19.0975 93.7463 18.2676 92.7227 18.2676C91.6991 18.2676 90.8691 19.0975 90.8691 20.1211V28.462C90.8691 29.4856 91.6991 30.3155 92.7227 30.3155C93.7463 30.3155 94.5762 29.4856 94.5762 28.462Z" fill="#229A9E"/>
<path d="M66.7735 28.462V20.1211C66.7735 19.0975 65.9435 18.2676 64.9199 18.2676C63.8963 18.2676 63.0664 19.0975 63.0664 20.1211V28.462C63.0664 29.4856 63.8963 30.3155 64.9199 30.3155C65.9435 30.3155 66.7735 29.4856 66.7735 28.462Z" fill="#229A9E"/>
</svg>
