<svg width="150" height="150" viewBox="0 0 150 150" fill="none" xmlns="http://www.w3.org/2000/svg">
<circle cx="75" cy="75" r="75" fill="#D1DDFD" fill-opacity="0.5"/>
<g clip-path="url(#clip0_7611_5396)">
<path d="M115.234 33.5938H105.924V30.8594C105.924 27.6285 103.296 25 100.065 25C96.8342 25 94.2057 27.6285 94.2057 30.8594V33.5938H61.3932V30.8594C61.3932 27.6285 58.7646 25 55.5338 25C52.3029 25 49.6744 27.6285 49.6744 30.8594V33.666C49.5084 33.6201 49.3344 33.5938 49.1537 33.5938H41.3717C35.9869 33.5938 31.6061 37.9746 31.6061 43.3594V76.6275C31.6061 77.7063 32.4807 78.5807 33.5592 78.5807C34.6377 78.5807 35.5123 77.7063 35.5123 76.6275V53.7109H105.924C107.003 53.7109 107.878 52.8365 107.878 51.7578C107.878 50.6791 107.003 49.8047 105.924 49.8047H35.5123V43.3594C35.5123 40.1285 38.1408 37.5 41.3717 37.5H49.1537C49.3344 37.5 49.5084 37.4734 49.6744 37.4277V39.9414C49.6744 43.1723 52.3029 45.8008 55.5338 45.8008C58.7646 45.8008 61.3932 43.1723 61.3932 39.9414V37.5H94.2057V39.9414C94.2057 43.1723 96.8342 45.8008 100.065 45.8008C103.296 45.8008 105.924 43.1723 105.924 39.9414V37.5H115.234C118.465 37.5 121.094 40.1285 121.094 43.3594V117.577C121.094 119.516 119.516 121.094 117.577 121.094C115.638 121.094 114.06 119.516 114.06 117.577V112.524C114.06 111.446 113.186 110.571 112.107 110.571H89.3881C88.3096 110.571 87.435 111.446 87.435 112.524C87.435 113.603 88.3096 114.478 89.3881 114.478H110.154V117.577C110.154 118.849 110.476 120.046 111.042 121.094H32.4219C30.4834 121.094 28.9062 119.517 28.9062 117.578V114.478H72.6221C73.7006 114.478 74.5752 113.603 74.5752 112.524C74.5752 111.446 73.7006 110.571 72.6221 110.571H53.1072C56.5201 107.632 58.6873 103.284 58.6873 98.4375C58.6873 89.6064 51.5027 82.4219 42.6717 82.4219C33.8406 82.4219 26.6561 89.6064 26.6561 98.4375C26.6561 103.284 28.8232 107.632 32.2361 110.571H26.9531C25.8746 110.571 25 111.446 25 112.524V117.578C25 121.671 28.3295 125 32.4219 125H117.577C121.67 125 125 121.67 125 117.577V43.3594C125 37.9746 120.619 33.5938 115.234 33.5938ZM57.4869 39.9414C57.4869 41.0184 56.6107 41.8945 55.5338 41.8945C54.4568 41.8945 53.5807 41.0184 53.5807 39.9414V30.8594C53.5807 29.7824 54.4568 28.9062 55.5338 28.9062C56.6107 28.9062 57.4869 29.7824 57.4869 30.8594V39.9414ZM102.018 39.9414C102.018 41.0184 101.142 41.8945 100.065 41.8945C98.9881 41.8945 98.1119 41.0184 98.1119 39.9414V30.8594C98.1119 29.7824 98.9881 28.9062 100.065 28.9062C101.142 28.9062 102.018 29.7824 102.018 30.8594V39.9414ZM30.5623 98.4375C30.5623 91.7604 35.9945 86.3281 42.6717 86.3281C49.3488 86.3281 54.7811 91.7604 54.7811 98.4375C54.7811 105.115 49.3488 110.547 42.6717 110.547C35.9945 110.547 30.5623 105.115 30.5623 98.4375Z" fill="#2043DA"/>
<path d="M116.467 50.377C116.104 50.0137 115.6 49.8047 115.086 49.8047C114.572 49.8047 114.068 50.0137 113.705 50.377C113.342 50.7402 113.133 51.2441 113.133 51.7578C113.133 52.2715 113.342 52.7754 113.705 53.1387C114.069 53.502 114.572 53.7109 115.086 53.7109C115.6 53.7109 116.104 53.502 116.467 53.1387C116.83 52.7754 117.039 52.2715 117.039 51.7578C117.039 51.2441 116.83 50.7402 116.467 50.377Z" fill="#2043DA"/>
<path d="M83.3299 111.143C82.9668 110.779 82.4629 110.572 81.9492 110.572C81.4355 110.572 80.9316 110.779 80.5684 111.143C80.2051 111.508 79.9961 112.01 79.9961 112.523C79.9961 113.039 80.2049 113.541 80.5684 113.906C80.9316 114.27 81.4355 114.477 81.9492 114.477C82.4629 114.477 82.9668 114.27 83.3299 113.906C83.6932 113.541 83.9023 113.037 83.9023 112.523C83.9023 112.01 83.6934 111.508 83.3299 111.143Z" fill="#2043DA"/>
<path d="M69.1885 84.375C65.0961 84.375 61.7666 87.7045 61.7666 91.7969C61.7666 95.8893 65.0961 99.2188 69.1885 99.2188C73.2809 99.2188 76.6104 95.8893 76.6104 91.7969C76.6104 87.7045 73.2809 84.375 69.1885 84.375ZM69.1885 95.3125C67.25 95.3125 65.6729 93.7354 65.6729 91.7969C65.6729 89.8584 67.25 88.2812 69.1885 88.2812C71.127 88.2812 72.7041 89.8584 72.7041 91.7969C72.7041 93.7354 71.127 95.3125 69.1885 95.3125Z" fill="#2043DA"/>
<path d="M87.418 84.375C83.3256 84.375 79.9961 87.7045 79.9961 91.7969C79.9961 95.8893 83.3256 99.2188 87.418 99.2188C91.5104 99.2188 94.8398 95.8893 94.8398 91.7969C94.8398 87.7045 91.5104 84.375 87.418 84.375ZM87.418 95.3125C85.4795 95.3125 83.9023 93.7354 83.9023 91.7969C83.9023 89.8584 85.4795 88.2812 87.418 88.2812C89.3564 88.2812 90.9336 89.8584 90.9336 91.7969C90.9336 93.7354 89.3564 95.3125 87.418 95.3125Z" fill="#2043DA"/>
<path d="M105.646 84.375C101.554 84.375 98.2246 87.7045 98.2246 91.7969C98.2246 95.8893 101.554 99.2188 105.646 99.2188C109.739 99.2188 113.068 95.8893 113.068 91.7969C113.068 87.7045 109.739 84.375 105.646 84.375ZM105.646 95.3125C103.708 95.3125 102.131 93.7354 102.131 91.7969C102.131 89.8584 103.708 88.2812 105.646 88.2812C107.585 88.2812 109.162 89.8584 109.162 91.7969C109.162 93.7354 107.585 95.3125 105.646 95.3125Z" fill="#2043DA"/>
<path d="M50.959 64.0625C46.8666 64.0625 43.5371 67.392 43.5371 71.4844C43.5371 75.5768 46.8666 78.9062 50.959 78.9062C55.0514 78.9062 58.3809 75.5768 58.3809 71.4844C58.3809 67.392 55.0514 64.0625 50.959 64.0625ZM50.959 75C49.0205 75 47.4434 73.4229 47.4434 71.4844C47.4434 69.5459 49.0205 67.9688 50.959 67.9688C52.8975 67.9688 54.4746 69.5459 54.4746 71.4844C54.4746 73.4229 52.8975 75 50.959 75Z" fill="#2043DA"/>
<path d="M87.418 64.0625C83.3256 64.0625 79.9961 67.392 79.9961 71.4844C79.9961 75.5768 83.3256 78.9062 87.418 78.9062C91.5104 78.9062 94.8398 75.5768 94.8398 71.4844C94.8398 67.392 91.5104 64.0625 87.418 64.0625ZM87.418 75C85.4795 75 83.9023 73.4229 83.9023 71.4844C83.9023 69.5459 85.4795 67.9688 87.418 67.9688C89.3564 67.9688 90.9336 69.5459 90.9336 71.4844C90.9336 73.4229 89.3564 75 87.418 75Z" fill="#2043DA"/>
<path d="M105.646 64.0625C101.554 64.0625 98.2246 67.392 98.2246 71.4844C98.2246 75.5768 101.554 78.9062 105.646 78.9062C109.739 78.9062 113.068 75.5768 113.068 71.4844C113.068 67.392 109.739 64.0625 105.646 64.0625ZM105.646 75C103.708 75 102.131 73.4229 102.131 71.4844C102.131 69.5459 103.708 67.9688 105.646 67.9688C107.585 67.9688 109.162 69.5459 109.162 71.4844C109.162 73.4229 107.585 75 105.646 75Z" fill="#2043DA"/>
<path d="M69.1885 64.0625C65.0961 64.0625 61.7666 67.392 61.7666 71.4844C61.7666 75.5768 65.0961 78.9062 69.1885 78.9062C73.2809 78.9062 76.6104 75.5768 76.6104 71.4844C76.6104 67.392 73.2809 64.0625 69.1885 64.0625ZM69.1885 75C67.25 75 65.6729 73.4229 65.6729 71.4844C65.6729 69.5459 67.25 67.9688 69.1885 67.9688C71.127 67.9688 72.7041 69.5459 72.7041 71.4844C72.7041 73.4229 71.127 75 69.1885 75Z" fill="#2043DA"/>
<path d="M49.6298 93.6775C48.8669 92.9148 47.6306 92.9148 46.8675 93.6775L40.507 100.038L38.3333 97.8646C37.5705 97.1019 36.3341 97.1019 35.571 97.8646C34.8083 98.6273 34.8083 99.864 35.571 100.627L39.1259 104.181C39.4923 104.548 39.989 104.753 40.507 104.753C41.025 104.753 41.5216 104.548 41.888 104.181L49.6298 96.4396C50.3925 95.6769 50.3925 94.4402 49.6298 93.6775Z" fill="#2043DA"/>
</g>
<defs>
<clipPath id="clip0_7611_5396">
<rect width="100" height="100" fill="white" transform="translate(25 25)"/>
</clipPath>
</defs>
</svg>
