<svg width="150" height="151" viewBox="0 0 150 151" fill="none" xmlns="http://www.w3.org/2000/svg">
<circle cx="75" cy="75.5" r="75" fill="#DEE3FD"/>
<g clip-path="url(#clip0_7179_77735)">
<path d="M91.2593 112.847C109.454 112.847 124.256 98.0452 124.256 79.8509C124.256 61.6566 109.454 46.8542 91.2593 46.8542C73.065 46.8542 58.2627 61.6563 58.2627 79.8509C58.2627 98.0455 73.065 112.847 91.2593 112.847ZM66.6913 78.083H61.8524C62.2566 71.2886 64.9734 65.1075 69.2254 60.3167L72.6372 63.7285C72.9823 64.0738 73.4348 64.2463 73.8871 64.2463C74.3394 64.2463 74.7919 64.0738 75.1369 63.7285C75.8273 63.0382 75.8273 61.9189 75.1369 61.2288L71.7251 57.817C76.5159 53.565 82.6971 50.8482 89.4915 50.444V55.2829C89.4915 56.2591 90.2827 57.0505 91.2591 57.0505C92.2356 57.0505 93.0268 56.2591 93.0268 55.2829V50.444C99.8211 50.8482 106.002 53.565 110.793 57.817L107.381 61.2288C106.691 61.9191 106.691 63.0384 107.381 63.7285C107.726 64.0735 108.179 64.2463 108.631 64.2463C109.083 64.2463 109.536 64.0738 109.881 63.7285L113.293 60.3167C117.545 65.1075 120.262 71.2884 120.666 78.0828H115.827C114.85 78.0828 114.059 78.8742 114.059 79.8504C114.059 80.8266 114.85 81.6181 115.827 81.6181H120.666C120.261 88.4125 117.545 94.5936 113.293 99.3842L109.881 95.9726C109.19 95.2823 108.071 95.2823 107.381 95.9726C106.691 96.6629 106.691 97.7822 107.381 98.4723L110.793 101.884C106.002 106.136 99.8211 108.853 93.0268 109.257V104.418C93.0268 103.442 92.2356 102.651 91.2591 102.651C90.2827 102.651 89.4915 103.442 89.4915 104.418V109.257C82.6968 108.853 76.5159 106.136 71.7251 101.884L75.1369 98.4725C75.8273 97.7822 75.8273 96.6629 75.1369 95.9728C74.4464 95.2823 73.3273 95.2825 72.6372 95.9728L69.2254 99.3844C64.9734 94.5936 62.2566 88.4127 61.8524 81.6181H66.6913C67.6675 81.6181 68.459 80.8266 68.459 79.8504C68.459 78.8744 67.6675 78.083 66.6913 78.083Z" fill="#2C67FE"/>
<path d="M112.693 113.873C106.286 117.918 98.8743 120.056 91.2595 120.056C69.0903 120.056 51.0543 102.02 51.0543 79.8508C51.0543 70.8756 53.9462 62.3866 59.417 55.3014C60.0135 54.5288 59.8709 53.4187 59.0981 52.8219C58.3255 52.2254 57.2154 52.368 56.6187 53.1408C50.6655 60.8504 47.519 70.0865 47.519 79.8508C47.519 103.969 67.1409 123.591 91.2595 123.591C99.5434 123.591 107.608 121.264 114.58 116.862C115.406 116.341 115.652 115.249 115.131 114.424C114.61 113.598 113.518 113.352 112.693 113.873Z" fill="#2C67FE"/>
<path d="M101.92 37.4266V30.726C101.92 28.8966 100.432 27.4084 98.6026 27.4084H83.916C82.0866 27.4084 80.5984 28.8966 80.5984 30.726V37.4247C73.5691 39.1857 67.0474 42.6795 61.6193 47.6837C60.9016 48.3455 60.8561 49.4636 61.5177 50.1815C62.1795 50.8991 63.2978 50.9449 64.0155 50.283C71.4564 43.4234 81.1318 39.6455 91.2593 39.6455C113.428 39.6455 131.464 57.6815 131.464 79.8507C131.464 91.2299 126.61 102.126 118.146 109.744C117.42 110.397 117.361 111.514 118.014 112.24C118.363 112.628 118.845 112.825 119.329 112.825C119.75 112.825 120.173 112.675 120.511 112.371C129.719 104.084 135 92.2304 135 79.8504C135 59.4084 120.903 42.1987 101.92 37.4266ZM84.134 36.6903V30.9438H98.385V36.6938C96.0654 36.312 93.6857 36.1102 91.2597 36.1102C88.8541 36.1102 86.4722 36.3063 84.134 36.6903Z" fill="#2C67FE"/>
<path d="M91.2596 81.0888C91.9228 81.0888 92.4998 80.7233 92.8022 80.1831L98.8998 74.0854C99.5902 73.3951 99.5902 72.2758 98.8998 71.5855C98.2095 70.8951 97.0905 70.8951 96.3997 71.5855L93.027 74.9579V66.3497C93.027 65.3735 92.2358 64.582 91.2594 64.582C90.2829 64.582 89.4917 65.3735 89.4917 66.3497V79.3207C89.4919 80.2974 90.2831 81.0888 91.2596 81.0888Z" fill="#2C67FE"/>
<path d="M41.0847 80.2496C41.0847 79.2734 40.2932 78.4819 39.317 78.4819H16.7677C15.7914 78.4819 15 79.2734 15 80.2496C15 81.2258 15.7914 82.0172 16.7677 82.0172H39.317C40.2932 82.0172 41.0847 81.226 41.0847 80.2496Z" fill="#2C67FE"/>
<path d="M23.8179 71.723H41.6741C42.6503 71.723 43.4417 70.9316 43.4417 69.9554C43.4417 68.9792 42.6503 68.1877 41.6741 68.1877H23.8179C22.8417 68.1877 22.0503 68.9792 22.0503 69.9554C22.0503 70.9316 22.8415 71.723 23.8179 71.723Z" fill="#2C67FE"/>
<path d="M44.0307 57.8931H29.3868C28.4106 57.8931 27.6191 58.6845 27.6191 59.6607C27.6191 60.6369 28.4106 61.4284 29.3868 61.4284H44.0307C45.0069 61.4284 45.7984 60.6369 45.7984 59.6607C45.7984 58.6843 45.0069 57.8931 44.0307 57.8931Z" fill="#2C67FE"/>
<path d="M43.4415 89.7462C43.4415 88.77 42.65 87.9785 41.6738 87.9785H23.8179C22.8417 87.9785 22.0503 88.77 22.0503 89.7462C22.0503 90.7224 22.8417 91.5138 23.8179 91.5138H41.6741C42.65 91.5138 43.4415 90.7224 43.4415 89.7462Z" fill="#2C67FE"/>
<path d="M44.0307 98.2732H29.3868C28.4106 98.2732 27.6191 99.0646 27.6191 100.041C27.6191 101.017 28.4106 101.808 29.3868 101.808H44.0307C45.0069 101.808 45.7984 101.017 45.7984 100.041C45.7984 99.0646 45.0069 98.2732 44.0307 98.2732Z" fill="#2C67FE"/>
</g>
<defs>
<clipPath id="clip0_7179_77735">
<rect width="120" height="120" fill="white" transform="translate(15 15.5)"/>
</clipPath>
</defs>
</svg>
